<svg xmlns="http://www.w3.org/2000/svg" viewBox="0 0 24 24" width="40px" height="40px">
  <defs>
    <linearGradient id="gradient" x1="0%" y1="0%" x2="100%" y2="100%">
      <stop offset="0%" style="stop-color:#6200ee;stop-opacity:1" />
      <stop offset="100%" style="stop-color:#03dac6;stop-opacity:1" />
    </linearGradient>
  </defs>
  <path d="M0 0h24v24H0z" fill="none"/>
  <path d="M20 6h-4V4c0-1.11-.89-2-2-2h-4c-1.11 0-2 .89-2 2v2H4c-1.11 0-1.99.89-1.99 2L2 19c0 1.11.89 2 2 2h16c1.11 0 2-.89 2-2V8c0-1.11-.89-2-2-2zm-6 0h-4V4h4v2z" fill="url(#gradient)"/>
</svg>

